<svg id="svg8" xmlns="http://www.w3.org/2000/svg" viewBox="0 0 550.64 438"><defs><style>.cls-1,.cls-2{fill:#e6e6e6;}.cls-1,.cls-3{stroke:#000;stroke-linecap:round;stroke-linejoin:bevel;}.cls-1{stroke-width:0.02px;}.cls-1,.cls-2,.cls-3,.cls-4{isolation:isolate;opacity:0.99;}.cls-3{fill:#ececec;stroke-width:0.01px;}.cls-4{fill:#ff7f2a;}.cls-5{fill:#fff;}</style></defs><g id="layer1"><g id="g915"><path id="rect874" class="cls-1" d="M546.19,201.8c5,8.7,4.61,23.69-1,33.62L479.14,352.29c-5.61,9.92-14.2,10.92-19.26,2.22s-4.61-23.7,1-33.63l66-116.86c5.61-9.93,14.21-10.92,19.27-2.22Z" transform="translate(-21.89 -165.15)"/><g id="g900"><path id="path881" class="cls-2" d="M548.3,197.62c-2.2,13.78-8.72,22-14.56,18.33s-8.8-17.8-6.6-31.59,8.71-22,14.56-18.34,8.8,17.81,6.6,31.6" transform="translate(-21.89 -165.15)"/><path id="path881-6" class="cls-2" d="M549.82,199.57c-7.87,4-12.48,15.51-10.3,25.65s10.33,15.09,18.21,11.06,12.48-15.52,10.3-25.66-10.33-15.08-18.21-11.05" transform="translate(-21.89 -165.15)"/></g><g id="g906"><path id="ellipse902" class="cls-3" d="M455.46,361.88c7.87-4,12.49-15.51,10.31-25.65s-10.34-15.09-18.21-11.06-12.49,15.52-10.3,25.66,10.33,15.09,18.2,11.05" transform="translate(-21.89 -165.15)"/><path id="ellipse904" class="cls-3" d="M456.6,364.52c2.2-13.79,8.72-22,14.56-18.34s8.8,17.8,6.6,31.59-8.71,22-14.56,18.34-8.8-17.81-6.6-31.59" transform="translate(-21.89 -165.15)"/></g></g><g id="g28"><path id="ellipse24" class="cls-4" d="M490.56,338c6,36.57-22.67,82.94-64,103.57s-79.75,7.72-85.75-28.85,22.67-82.94,64-103.57,79.76-7.72,85.75,28.85" transform="translate(-21.89 -165.15)"/><path id="path12" class="cls-4" d="M410.33,431.19c0,85.32-74.05,154.48-165.4,154.48S79.52,516.51,79.52,431.19,153.57,276.7,244.93,276.7h0c91.35,0,165.4,69.17,165.4,154.49h0" transform="translate(-21.89 -165.15)"/></g><path id="path10" class="cls-5" d="M21.89,429.33H572.54s-10.72,69.41-94.76,118.42c-89,51.89-245.81,90.36-365.12,6-37.58-26.57-60.86-72-90.77-124.44Z" transform="translate(-21.89 -165.15)"/></g></svg>