<svg id="svg8" xmlns="http://www.w3.org/2000/svg" viewBox="0 0 411.62 296.23"><defs><style>.cls-1,.cls-2{fill:#e6e6e6;}.cls-1,.cls-3{stroke:#000;stroke-linecap:round;stroke-linejoin:bevel;}.cls-1{stroke-width:0.02px;}.cls-1,.cls-2,.cls-3,.cls-4{isolation:isolate;opacity:0.99;}.cls-3{fill:#ececec;stroke-width:0.01px;}.cls-4{fill:#ff7f2a;}.cls-5{fill:#88ffb0;}</style></defs><g id="layer1"><g id="g915"><path id="rect874" class="cls-1" d="M461.72,97.78c3.74,5.83,3.45,15.87-.75,22.53l-49.37,78.3c-4.19,6.65-10.62,7.32-14.4,1.49s-3.44-15.88.75-22.53l49.34-78.3c4.19-6.66,10.62-7.32,14.4-1.49Z" transform="translate(-69.52 -69.51)"/><g id="g900"><path id="path881" class="cls-2" d="M464.94,91.26c-1.65,9.24-6.52,14.74-10.89,12.29s-6.57-11.93-4.93-21.17S455.63,67.64,460,70.09s6.58,11.93,4.94,21.17" transform="translate(-69.52 -69.51)"/><path id="path881-6" class="cls-2" d="M466.07,92.57c-5.88,2.68-9.33,10.39-7.7,17.19s7.73,10.11,13.62,7.41,9.32-10.4,7.7-17.2-7.73-10.1-13.62-7.4" transform="translate(-69.52 -69.51)"/></g><g id="g906"><path id="ellipse902" class="cls-3" d="M393.9,205c5.88-2.68,9.33-10.39,7.71-17.19s-7.73-10.11-13.62-7.41-9.33,10.4-7.7,17.19S388,207.75,393.9,205" transform="translate(-69.52 -69.51)"/><path id="ellipse904" class="cls-3" d="M394.75,206.81c1.64-9.24,6.52-14.74,10.88-12.29s6.58,11.93,4.94,21.17-6.51,14.74-10.89,12.28-6.57-11.93-4.93-21.16" transform="translate(-69.52 -69.51)"/></g></g><g id="g28"><path id="ellipse24" class="cls-4" d="M419.85,188.08c4.49,24.5-16.94,55.57-47.84,69.39s-59.61,5.18-64.1-19.33,16.95-55.57,47.84-69.39,59.62-5.18,64.1,19.33" transform="translate(-69.52 -69.51)"/><path id="path12" class="cls-4" d="M359.88,250.52c0,57.17-55.35,103.51-123.64,103.51S112.6,307.69,112.6,250.52,168,147,236.24,147h0c68.29,0,123.64,46.35,123.64,103.52h0" transform="translate(-69.52 -69.51)"/></g><path id="path10" class="cls-5" d="M69.52,249.27H481.13s-8,46.51-70.83,79.35c-66.53,34.77-183.75,60.54-272.93,4-28.09-17.81-45.5-48.24-67.85-83.38Z" transform="translate(-69.52 -69.51)"/></g></svg>