<svg id="Layer_1" data-name="Layer 1" xmlns="http://www.w3.org/2000/svg" viewBox="0 0 122.88 85.46"><defs><style>.cls-1{fill-rule:evenodd;}</style></defs><title>fruit-basket</title><path class="cls-1" d="M119.24,30.85a9.56,9.56,0,0,1,1.7,1.5A6.67,6.67,0,0,1,122.88,37v7.84a6.62,6.62,0,0,1-6.63,6.63H111.9l-3.79,28.68a5.94,5.94,0,0,1-1.68,3.68,5.3,5.3,0,0,1-3.82,1.59H20.27a5.3,5.3,0,0,1-3.82-1.59,5.94,5.94,0,0,1-1.68-3.68L11,51.51H6.63A6.62,6.62,0,0,1,0,44.88V37a6.67,6.67,0,0,1,1.94-4.69c1.2-1.2,1.79-1.94,3.61-1.94H8a15.85,15.85,0,0,1,.21-1.72,16.7,16.7,0,0,1,2-5.53A15.52,15.52,0,0,1,12.62,20a13.59,13.59,0,0,1,3.24-2.41,12.76,12.76,0,0,1,3.71-1.29c.28,0,.57-.09.87-.12h0q.42,0,.87-.06l2.34.12.1,0a13.8,13.8,0,0,1,1.94.43h0a17.29,17.29,0,0,1,2,.75,9.57,9.57,0,0,1,1.07.52c.15-1,.36-2.17.49-2.61a6.37,6.37,0,0,0-.5-.55,7,7,0,0,0-.56-.52l-.49.27-.55.26h0a9.09,9.09,0,0,1-2.24.67,10,10,0,0,1-2.33.11l-.61,0a10.09,10.09,0,0,1-1.34-.21,10.45,10.45,0,0,1-3.44-1.54,11.42,11.42,0,0,1-2.78-2.7,13.07,13.07,0,0,1-.88-1.35,12.16,12.16,0,0,1-.74-1.49.82.82,0,0,1,0-.65.86.86,0,0,1,.45-.47l.08,0c.42-.16.83-.3,1.24-.43s.81-.24,1.22-.34.84-.2,1.27-.27a11.22,11.22,0,0,1,1.28-.17,13.3,13.3,0,0,1,3.9.17,9.78,9.78,0,0,1,3.28,1.29A8.22,8.22,0,0,1,28,9.67a9.42,9.42,0,0,1,1.35,3.24h0l.71.66a6.79,6.79,0,0,1,.43-.74c.16-.25.34-.5.52-.73a8.59,8.59,0,0,1,2.17-1.92A11.3,11.3,0,0,1,35.85,9a.88.88,0,0,1,.64.07.86.86,0,0,1,.34,1.16.8.8,0,0,1-.51.4,9.34,9.34,0,0,0-2.25,1,6.87,6.87,0,0,0-2.45,2.56,7.64,7.64,0,0,0-.53,1.19l-.07.18a13.15,13.15,0,0,0-.34,1.55c-.09.46-.17,1-.24,1.4l0,0a.33.33,0,0,1,.1.06,18.29,18.29,0,0,1,4.83,1,13.81,13.81,0,0,1,4.09,2.28h0a12.25,12.25,0,0,1,2.62,3h0a12.23,12.23,0,0,1,.62,1.12,10.11,10.11,0,0,1,.79-3.58,7.58,7.58,0,0,1,2.71-3.24,8.67,8.67,0,0,1,4.23-1.5,9.1,9.1,0,0,1-3-4.85,9.42,9.42,0,0,1,3.16.13,16.7,16.7,0,0,1,4.32,1.57.72.72,0,0,0,.92-1.07,7.67,7.67,0,0,1-1.6-3.7,5.4,5.4,0,0,1,.6-3A4.35,4.35,0,0,1,57.25,8a14.76,14.76,0,0,1,2.82,4.39h0a.74.74,0,0,0,.48.4.72.72,0,0,0,.89-.51A10,10,0,0,1,63.62,8a5.18,5.18,0,0,1,2.73-1.6,6.74,6.74,0,0,1,.34,2.86h0a14,14,0,0,1-1.19,4.46h0a.69.69,0,0,0,.1.74.72.72,0,0,0,1,.11,7.52,7.52,0,0,1,3.23-1.49,11,11,0,0,1,3.48-.1,8.12,8.12,0,0,1-2.7,4.68A10,10,0,0,1,74.24,19a6.39,6.39,0,0,1,.77.5,7.89,7.89,0,0,1,.7.57q.33.32.6.63a8.44,8.44,0,0,1,.52.7,8.06,8.06,0,0,1,.39.71,16,16,0,0,1,2.47-5.92,12.29,12.29,0,0,1,6.79-5,13.85,13.85,0,0,1,8,.28,13.19,13.19,0,0,0,2.81.52,16.83,16.83,0,0,1,.17-2.13l0,0,.09-.5a10.52,10.52,0,0,1-6.25,1.37h0c-5.09-.62-7.55-4.85-9.55-9l2.73-.29C91.38.42,95.59,2.68,98.08,7.05l.11-.32A14.94,14.94,0,0,1,102.32.32,1.2,1.2,0,1,1,104,2.09a12.6,12.6,0,0,0-3.47,5.39A15.76,15.76,0,0,0,99.72,12a10.31,10.31,0,0,0,2.41-.5l.14,0A17.87,17.87,0,0,1,108,11a12.45,12.45,0,0,1,4.71,1.39,13.27,13.27,0,0,1,7.27,9.9,20,20,0,0,1-.7,8.54Zm-109-.44H31.61a16.26,16.26,0,0,0,0-2.42,14.23,14.23,0,0,0-.36-2.32A11.18,11.18,0,0,0,29.65,22a8.17,8.17,0,0,0-2.59-2.48,13.2,13.2,0,0,0-3.6-1.1,10.85,10.85,0,0,0-3.51,0,10.52,10.52,0,0,0-3.08,1.07,11.28,11.28,0,0,0-2.7,2,12.82,12.82,0,0,0-2.09,2.74,14.57,14.57,0,0,0-1.37,3.27A14.24,14.24,0,0,0,10.38,29q-.12.7-.18,1.41Zm23.59,0h8.05c0-.22-.06-.44-.1-.65s-.09-.47-.15-.72h0A10.24,10.24,0,0,0,40.3,26v0a10.16,10.16,0,0,0-2.16-2.44,11.62,11.62,0,0,0-3.23-1.83,15,15,0,0,0-3.37-.82,12,12,0,0,1,.94,1.69,14.21,14.21,0,0,1,.89,2.6h0a16.66,16.66,0,0,1,.41,2.59,18,18,0,0,1,0,2.65Zm11.07,0h31c.1-.4.19-.81.26-1.21a14.81,14.81,0,0,0,.27-4.13,6.21,6.21,0,0,0-.88-2.82,6.31,6.31,0,0,0-.39-.54,5.27,5.27,0,0,0-.45-.48c-.18-.15-.36-.3-.55-.44a6.81,6.81,0,0,0-.63-.41,8.74,8.74,0,0,0-3.13-1.12,10.32,10.32,0,0,0-2.83,0,15.25,15.25,0,0,1-3.12.73h0a22.21,22.21,0,0,1-3.65.17c-1.06,0-2.1-.1-3.08-.21a21.63,21.63,0,0,1-2.9-.5,17.93,17.93,0,0,0-3.94-.28,7.18,7.18,0,0,0-3.58,1.24A5.92,5.92,0,0,0,45,23a9.12,9.12,0,0,0-.67,3.88,17.53,17.53,0,0,0,.49,3.52Zm35.29,0h36.42a17.6,17.6,0,0,0,.71-7.68,10.65,10.65,0,0,0-5.88-7.94,9.88,9.88,0,0,0-3.69-1.1,15.69,15.69,0,0,0-4.78.37,14.14,14.14,0,0,1-4.48.69,16.52,16.52,0,0,1-4.74-.7h0a11.29,11.29,0,0,0-6.49-.26,9.71,9.71,0,0,0-5.3,3.9,14,14,0,0,0-2.34,7,17.51,17.51,0,0,0,.58,5.69ZM51.56,29c1.1-1.4,1.49-2.27,1.49-3a1.51,1.51,0,0,0-1.49-1.57,1.41,1.41,0,0,0-1.4,1.55c0,.77.32,1.39,1.4,3.06ZM26.69,13.15q-.37-.22-.78-.42c-.31-.16-.63-.3-.95-.43a15.1,15.1,0,0,0-3.23-.93,16,16,0,0,0-3.41-.25.86.86,0,0,1-.6-.24.84.84,0,0,1-.27-.59h0a.89.89,0,0,1,.23-.6.81.81,0,0,1,.59-.26h0A18.57,18.57,0,0,1,22,9.69a16.78,16.78,0,0,1,3.57,1l.79.34.58.3A6.59,6.59,0,0,0,26,10a6.36,6.36,0,0,0-1.4-1.19A8,8,0,0,0,21.88,7.7a11.7,11.7,0,0,0-3.36-.14c-.37,0-.75.09-1.13.16s-.78.15-1.17.25l-.76.2-.68.21c.15.3.31.58.47.85s.37.57.56.83a9.93,9.93,0,0,0,2.37,2.31,8.71,8.71,0,0,0,2.9,1.29,8.78,8.78,0,0,0,2.78.23,8.72,8.72,0,0,0,2.67-.66l.16-.08ZM69.22,29c1.11-1.4,1.49-2.27,1.49-3a1.51,1.51,0,0,0-1.49-1.57,1.41,1.41,0,0,0-1.39,1.55c0,.77.32,1.39,1.39,3.06Zm-8.17,0c1.1-1.4,1.49-2.27,1.49-3a1.51,1.51,0,0,0-1.49-1.57,1.42,1.42,0,0,0-1.4,1.55c0,.77.32,1.39,1.4,3.06ZM84.9,3.26c4.54,1.57,7.48,2.2,11.29,5.14C91.7,6.93,88.84,6,84.9,3.26Zm5.17,45.66V72.34H78.46V48.92Zm-45.65,0V72.34H32.81V48.92Zm22.82,0V72.34H55.64V48.92Z"/></svg>